Coordinates
version=1
nRows=17
nColumns=24
inDegrees=yes

Units are S.I. units (second, meters, Newtons, ...)
Angles are in degrees.

endheader
time	pelvis_tilt	pelvis_list	pelvis_rotation	pelvis_tx	pelvis_ty	pelvis_tz	hip_flexion_r	hip_adduction_r	hip_rotation_r	knee_angle_r	ankle_angle_r	subtalar_angle_r	mtp_angle_r	hip_flexion_l	hip_adduction_l	hip_rotation_l	knee_angle_l	ankle_angle_l	subtalar_angle_l	mtp_angle_l	lumbar_extension	lumbar_bending	lumbar_rotation
      5.90000000	     15.24947876	     -2.53404294	     10.29555106	      2.64069466	      0.75763959	     -0.24841405	     -8.88236416	      8.38483646	     -6.65191594	    -13.54866818	     25.20175171	      6.62088389	      0.00000000	     10.00120521	     -0.68313635	      6.81739782	    -63.78958777	     21.04946282	     -4.84837727	      0.00000000	    -34.89174937	     10.77873789	     -1.55459268
      5.90500000	     15.28230959	     -2.58833279	      9.72870000	      2.64778134	      0.75787052	     -0.24795916	     -9.79410234	      8.44614267	     -6.33441363	    -13.00916276	     25.49942718	      7.14397143	      0.00000000	     10.54250268	     -0.64459811	      6.32351364	    -62.48383346	     21.12497891	     -5.62512365	      0.00000000	    -34.99960554	     10.58208182	     -1.02568612
      5.91000000	     15.30155165	     -2.70461488	      9.16533043	      2.65484521	      0.75796062	     -0.24749960	    -10.66238665	      8.55286037	     -6.05520258	    -12.50380816	     25.76659119	      7.65804038	      0.00000000	     11.09395291	     -0.69118309	      5.83129084	    -61.12927814	     21.15945096	     -6.43776232	      0.00000000	    -35.09895705	     10.44768289	     -0.44187454
      5.91500000	     15.38369504	     -2.70390384	      8.60147708	      2.66194538	      0.75807174	     -0.24707183	    -11.62350057	      8.52261687	     -5.82069619	    -12.00526117	     26.14104793	      8.29124087	      0.00000000	     11.48599756	     -0.62528228	      5.34375237	    -59.62182026	     21.13177438	     -7.28111211	      0.00000000	    -35.27652063	     10.20804771	      0.04434698
      5.92000000	     15.41223592	     -2.80626750	      8.03562659	      2.66899677	      0.75799677	     -0.24662951	    -12.48673398	      8.58006937	     -5.54254350	    -11.54491787	     26.47971184	      8.85404451	      0.00000000	     11.94954283	     -0.67765654	      4.87189709	    -58.09097996	     21.03564677	     -8.09065370	      0.00000000	    -35.40399859	     10.06064774	      0.62868223
      5.92500000	     15.43793559	     -2.96606315	      7.49886555	      2.67602946	      0.75780568	     -0.24620871	    -13.32210913	      8.68629066	     -5.32176475	    -11.11715562	     26.75500076	      9.38692673	      0.00000000	     12.40326286	     -0.80880880	      4.41207460	    -56.50299756	     20.96964614	     -8.88396249	      0.00000000	    -35.53436980	      9.98519759	      1.23738012
      5.93000000	     15.53744314	     -2.98140535	      6.96416032	      2.68311270	      0.75765575	     -0.24581901	    -14.26199686	      8.62958081	     -5.16176050	    -10.69807259	     27.17832883	     10.03791013	      0.00000000	     12.67303877	     -0.78671769	      3.97124944	    -54.75070141	     20.84653224	     -9.64597079	      0.00000000	    -35.74788709	      9.77420713	      1.70961703
      5.93500000	     15.58059217	     -3.10654836	      6.44409305	      2.69013766	      0.75732932	     -0.24543345	    -15.10222987	      8.67419307	     -4.95552747	    -10.31801200	     27.54446737	     10.60850803	      0.00000000	     13.01645405	     -0.88580459	      3.56249519	    -52.98150392	     20.71353606	    -10.28204891	      0.00000000	    -35.91252176	      9.67277751	      2.27470896
      5.94000000	     15.59846198	     -3.29306826	      5.94799231	      2.69713917	      0.75687974	     -0.24506046	    -15.88952107	      8.77454303	     -4.77094225	     -9.97321722	     27.84175482	     11.10853807	      0.00000000	     13.37181369	     -1.05687558	      3.18021247	    -51.16203819	     20.62748551	    -10.80133562	      0.00000000	    -36.05884476	      9.63822291	      2.87048782
      5.94500000	     15.63494393	     -3.41439535	      5.45387277	      2.70415912	      0.75640436	     -0.24472842	    -16.69864334	      8.79319337	     -4.58212278	     -9.65286553	     28.21245702	     11.61952579	      0.00000000	     13.63649657	     -1.15900969	      2.79954863	    -49.22389214	     20.54702670	    -11.17998907	      0.00000000	    -36.23075383	      9.55009407	      3.41366426
      5.95000000	     15.67765359	     -3.54338488	      4.99503079	      2.71117005	      0.75585909	     -0.24440326	    -17.50391160	      8.82030452	     -4.43748239	     -9.35105102	     28.58797961	     12.13075447	      0.00000000	     13.85859468	     -1.26707283	      2.47601732	    -47.21460733	     20.49888077	    -11.36305851	      0.00000000	    -36.41228692	      9.47333941	      3.91927813
      5.95500000	     15.70412769	     -3.67854304	      4.56915865	      2.71818746	      0.75523030	     -0.24411552	    -18.28441168	      8.85187121	     -4.31942795	     -9.06506563	     28.96363617	     12.61792349	      0.00000000	     14.06067351	     -1.37557238	      2.19827113	    -45.13835007	     20.50216436	    -11.32245837	      0.00000000	    -36.57952350	      9.42119094	      4.40503535
      5.96000000	     15.71642773	     -3.81921197	      4.17458656	      2.72520012	      0.75452652	     -0.24387557	    -19.03682962	      8.88704126	     -4.21584445	     -8.80638886	     29.33446582	     13.08308478	      0.00000000	     14.23952893	     -1.48209398	      1.96375189	    -42.99382123	     20.56137516	    -11.04182252	      0.00000000	    -36.73326760	      9.39171641	      4.86676863
      5.96500000	     15.71340715	     -3.96753219	      3.79876995	      2.73221659	      0.75375322	     -0.24363537	    -19.76163245	      8.92839939	     -4.13529324	     -8.57116768	     29.70288853	     13.52527561	      0.00000000	     14.39264843	     -1.59350710	      1.77416444	    -40.78452871	     20.67498721	    -10.50114743	      0.00000000	    -36.87348311	      9.36792125	      5.31769184
      5.97000000	     15.69874132	     -4.12084932	      3.45377768	      2.73923798	      0.75291964	     -0.24343486	    -20.46498434	      8.97499202	     -4.07278608	     -8.35720075	     30.06492993	     13.95863876	      0.00000000	     14.51610072	     -1.70132236	      1.64011596	    -38.51342129	     20.84632666	     -9.69168765	      0.00000000	    -37.00226276	      9.36414294	      5.74685207
      5.97500000	     15.66829586	     -4.28105676	      3.13385533	      2.74627638	      0.75202557	     -0.24325315	    -21.14358720	      9.02924698	     -4.02678942	     -8.16340800	     30.41283929	     14.38964798	      0.00000000	     14.61233365	     -1.81056655	      1.55790963	    -36.18465406	     21.07665695	     -8.62424991	      0.00000000	    -37.11191618	      9.37320094	      6.15392458
      5.98000000	     15.60100941	     -4.44062622	      2.82997262	      2.75333406	      0.75106116	     -0.24309215	    -21.77216244	      9.08040467	     -4.00483895	     -7.99458693	     30.75930774	     14.78407624	      0.00000000	     14.70465544	     -1.91110694	      1.53094506	    -33.80835708	     21.31886630	     -7.32359842	      0.00000000	    -37.17998437	      9.38970893	      6.55637309
